# xmcd CD database file
#
# Track frame offsets:
#	150
#	9855
#	19202
#	29672
#	42015
#	53725
#	62727
#	70907
#	82695
#	95540
#	104305
#	115917
#	127867
#	138185
#	148742
#	163590
#	177735
#	187060
#	195712
#	205380
#	218940
#	229987
#	239885
#	249725
#	260377
#	271332
#	284830
#	305337
#	317057
#	330505
#	342435
#
# Disc length: 4776 seconds
#
# Revision: 6
# Processed by: cddbd v1.5.2PL0 Copyright (c) Steve Scherf et al.
# Submitted via: CDex 1.77
#
DISCID=d812a61f
DTITLE=Elvis Presley - ELV1S - 30 # 1 Hits
DYEAR=2002
DGENRE=Rock and Roll
TTITLE0=Heartbreak Hotel
TTITLE1=Don't Be Cruel
TTITLE2=Hound Dog
TTITLE3=Love Me Tender
TTITLE4=Too Much
TTITLE5=All Shook Up
TTITLE6=(Let Me Be Your) Teddy Bear
TTITLE7=Jailhouse Rock
TTITLE8=Don't
TTITLE9=Hard Headed Woman
TTITLE10=One Night
TTITLE11=(Now And Then There's) A Fool Such As I
TTITLE12=A Big Hunk O' Love
TTITLE13=Stuck On You
TTITLE14=It's Now Or Never
TTITLE15=Are You Lonesome Tonight?
TTITLE16=Wooden Heart
TTITLE17=Surrender
TTITLE18=(Marie's The Name) His Latest Flame
TTITLE19=Can't Help Falling In Love
TTITLE20=Good Luck Charm
TTITLE21=She's Not You
TTITLE22=Return To Sender
TTITLE23=(You're The) Devil in Disguise
TTITLE24=Crying In The Chapel
TTITLE25=In The Ghetto
TTITLE26=Suspicious Minds
TTITLE27=The Wonder of You
TTITLE28=Burning Love
TTITLE29=Way Down
TTITLE30=A Little Less Conversation (JXL Radio Edit Remix)
EXTD=YEAR: 2002
EXTT0=
EXTT1=
EXTT2=
EXTT3=
EXTT4=
EXTT5=
EXTT6=
EXTT7=
EXTT8=
EXTT9=
EXTT10=
EXTT11=
EXTT12=
EXTT13=
EXTT14=
EXTT15=
EXTT16=
EXTT17=
EXTT18=
EXTT19=
EXTT20=
EXTT21=
EXTT22=
EXTT23=
EXTT24=
EXTT25=
EXTT26=
EXTT27=
EXTT28=
EXTT29=
EXTT30=
PLAYORDER=
